<svg xmlns="http://www.w3.org/2000/svg" width="20" height="20" fill="white" viewBox="0 0 24 24">
                        <path d="M12 2C6.48 2 2 6.58 2 12.26c0 4.5 2.87 8.31 6.84 9.66c.5.09.68-.22.68-.49c0-.24-.01-.87-.01-1.7c-2.78.61-3.37-1.36-3.37-1.36c-.46-1.18-1.12-1.49-1.12-1.49c-.91-.64.07-.63.07-.63c1.01.07 1.54 1.07 1.54 1.07c.9 1.57 2.35 1.12 2.92.86c.09-.67.35-1.12.63-1.38c-2.22-.26-4.56-1.14-4.56-5.07c0-1.12.38-2.04 1.02-2.76c-.1-.26-.45-1.3.1-2.7c0 0 .84-.27 2.75 1.05c.8-.23 1.65-.34 2.5-.34c.85 0 1.7.12 2.5.34c1.91-1.32 2.75-1.05 2.75-1.05c.55 1.4.2 2.44.1 2.7c.63.72 1.02 1.64 1.02 2.76c0 3.94-2.35 4.81-4.59 5.06c.36.32.68.93.68 1.88c0 1.36-.01 2.46-.01 2.8c0 .27.18.59.69.48A10.26 10.26 0 0 0 22 12.26C22 6.58 17.52 2 12 2z"/>
                    </svg>